{"title":"Alexandra Stan","uid":6278289,"size":49296957,"categoryP":"audio","categoryS":"music","magnet":"?xt=urn:btih:123e5a089f138811d1c15fcc196d2d72396a5cfa&amp;dn=Alexandra+Stan&amp;tr=udp%3A%2F%2Ftracker.openbittorrent.com%3A80&amp;tr=udp%3A%2F%2Fopen.demonii.com%3A1337&amp;tr=udp%3A%2F%2Ftracker.coppersurfer.tk%3A6969&amp;tr=udp%3A%2F%2Fexodus.desync.com%3A6969","seeders":1,"leechers":0,"uploader":"ArdilesS","files":14,"time":1301343936,"description":"My first upload.. =)\n\n\nAlexandra Stan\n\nGeneral\nComplete name                    : F:\\Alexandra Stan\\01 - Get Back (Radio Edit).mp3\nFormat                           : MPEG Audio\nFile size                        : 6.56 MiB\nDuration                         : 3mn 29s\nOverall bit rate                 : 256 Kbps\nAlbum                            : Alexandra Stan\nTrack name                       : 01 - Get Back (Radio Edit)\nTrack name/Position              : 1\nPerformer                        : Alexandra Stan\nGenre                            : Dance\nRecorded date                    : 2011\nWriting library                  : LAME3.96.1\nCover                            : Yes\nCover type                       : Cover (front)\nCover MIME                       : image/jpeg\nComment                          : upload by ArdilesS\n\nAudio\nFormat                           : MPEG Audio\nFormat version                   : Version 1\nFormat profile                   : Layer 3\nMode                             : Joint stereo\nMode extension                   : MS Stereo\nDuration                         : 3mn 29s\nBit rate mode                    : Constant\nBit rate                         : 256 Kbps\nChannel(s)                       : 2 channels\nSampling rate                    : 44.1 KHz\nCompression mode                 : Lossy\nStream size                      : 6.38 MiB (97%)\nWriting library                  : LAME3.96.1\n\nGeneral\nComplete name                    : F:\\Alexandra Stan\\02 - Mr. Saxobeat (Radio Edit).mp3\nFormat                           : MPEG Audio\nFile size                        : 6.14 MiB\nDuration                         : 3mn 15s\nOverall bit rate                 : 256 Kbps\nAlbum                            : Alexandra Stan\nTrack name                       : 02 - Mr. Saxobeat (Radio Edit)\nTrack name/Position              : 2\nPerformer                        : Alexandra Stan\nGenre                            : Dance\nRecorded date                    : 2011\nWriting library                  : LAME3.96.1\nCover                            : Yes\nCover type                       : Cover (front)\nCover MIME                       : image/jpeg\nComment                          : upload by ArdilesS\n\nAudio\nFormat                           : MPEG Audio\nFormat version                   : Version 1\nFormat profile                   : Layer 3\nMode                             : Joint stereo\nMode extension                   : MS Stereo\nDuration                         : 3mn 15s\nBit rate mode                    : Constant\nBit rate                         : 256 Kbps\nChannel(s)                       : 2 channels\nSampling rate                    : 44.1 KHz\nCompression mode                 : Lossy\nStream size                      : 5.96 MiB (97%)\nWriting library                  : LAME3.96.1\n\nGeneral\nComplete name                    : F:\\Alexandra Stan\\03 - Lollipop.mp3\nFormat                           : MPEG Audio\nFile size                        : 7.34 MiB\nDuration                         : 3mn 54s\nOverall bit rate                 : 256 Kbps\nAlbum                            : Alexandra Stan\nTrack name                       : 03 - Lollipop\nTrack name/Position              : 3\nPerformer                        : Alexandra Stan\nGenre                            : Dance\nRecorded date                    : 2011\nWriting library                  : LAME3.96.1\nCover                            : Yes\nCover type                       : Cover (front)\nCover MIME                       : image/jpeg\nComment                          : upload by ArdilesS\n\nAudio\nFormat                           : MPEG Audio\nFormat version                   : Version 1\nFormat profile                   : Layer 3\nMode                             : Joint stereo\nDuration                         : 3mn 54s\nBit rate mode                    : Constant\nBit rate                         : 256 Kbps\nChannel(s)                       : 2 channels\nSampling rate                    : 44.1 KHz\nCompression mode                 : Lossy\nStream size                      : 7.16 MiB (98%)\nWriting library                  : LAME3.96.1\n\nGeneral\nComplete name                    : F:\\Alexandra Stan\\04 - Show me the way (Extended Version).mp3\nFormat                           : MPEG Audio\nFile size                        : 9.58 MiB\nDuration                         : 5mn 8s\nOverall bit rate                 : 256 Kbps\nAlbum                            : Alexandra Stan\nTrack name                       : 04 - Show me the way (Extended Version)\nTrack name/Position              : 4\nPerformer                        : Alexandra Stan\nGenre                            : Dance\nRecorded date                    : 2011\nWriting library                  : LAME3.96.1\nCover                            : Yes\nCover type                       : Cover (front)\nCover MIME                       : image/jpeg\nComment                          : upload by ArdilesS\n\nAudio\nFormat                           : MPEG Audio\nFormat version                   : Version 1\nFormat profile                   : Layer 3\nMode                             : Joint stereo\nDuration                         : 5mn 8s\nBit rate mode                    : Constant\nBit rate                         : 256 Kbps\nChannel(s)                       : 2 channels\nSampling rate                    : 44.1 KHz\nCompression mode                 : Lossy\nStream size                      : 9.40 MiB (98%)\nWriting library                  : LAME3.96.1\n\nGeneral\nComplete name                    : F:\\Alexandra Stan\\05 - Mr. Saxobeat (Extended Version).mp3\nFormat                           : MPEG Audio\nFile size                        : 8.01 MiB\nDuration                         : 4mn 16s\nOverall bit rate                 : 256 Kbps\nAlbum                            : Alexandra Stan\nTrack name                       : 05 - Mr. Saxobeat (Extended Version)\nTrack name/Position              : 5\nPerformer                        : Alexandra Stan\nGenre                            : Dance\nRecorded date                    : 2011\nWriting library                  : LAME3.96.1\nCover                            : Yes\nCover type                       : Cover (front)\nCover MIME                       : image/jpeg\nComment                          : upload by ArdilesS\n\nAudio\nFormat                           : MPEG Audio\nFormat version                   : Version 1\nFormat profile                   : Layer 3\nMode                             : Joint stereo\nDuration                         : 4mn 17s\nBit rate mode                    : Constant\nBit rate                         : 256 Kbps\nChannel(s)                       : 2 channels\nSampling rate                    : 44.1 KHz\nCompression mode                 : Lossy\nStream size                      : 7.84 MiB (98%)\nWriting library                  : LAME3.96.1\n\nGeneral\nComplete name                    : F:\\Alexandra Stan\\06 - Lollipop CLUB VERSION.mp3\nFormat                           : MPEG Audio\nFile size                        : 7.94 MiB\nDuration                         : 4mn 14s\nOverall bit rate                 : 256 Kbps\nAlbum                            : Alexandra Stan\nTrack name                       : 06 - Lollipop CLUB VERSION\nTrack name/Position              : 6\nPerformer                        : Alexandra Stan\nGenre                            : Dance\nRecorded date                    : 2011\nWriting library                  : LAME3.96.1\nCover                            : Yes\nCover type                       : Cover (front)\nCover MIME                       : image/jpeg\nComment                          : upload by ArdilesS\n\nAudio\nFormat                           : MPEG Audio\nFormat version                   : Version 1\nFormat profile                   : Layer 3\nMode                             : Joint stereo\nMode extension                   : MS Stereo\nDuration                         : 4mn 14s\nBit rate mode                    : Constant\nBit rate                         : 256 Kbps\nChannel(s)                       : 2 channels\nSampling rate                    : 44.1 KHz\nCompression mode                 : Lossy\nStream size                      : 7.76 MiB (98%)\nWriting library                  : LAME3.96.1\n","torrent":{"xt":"urn:btih:123e5a089f138811d1c15fcc196d2d72396a5cfa","amp;dn":"Alexandra+Stan","amp;tr":["udp%3A%2F%2Ftracker.openbittorrent.com%3A80","udp%3A%2F%2Fopen.demonii.com%3A1337","udp%3A%2F%2Ftracker.coppersurfer.tk%3A6969","udp%3A%2F%2Fexodus.desync.com%3A6969"],"infoHash":"123e5a089f138811d1c15fcc196d2d72396a5cfa","infoHashBuffer":{"type":"Buffer","data":[18,62,90,8,159,19,136,17,209,193,95,204,25,109,45,114,57,106,92,250]},"announce":[],"urlList":[]}}